<?xml version="1.0" standalone="no"?>
<!DOCTYPE svg PUBLIC "-//W3C//DTD SVG 20010904//EN"
 "http://www.w3.org/TR/2001/REC-SVG-20010904/DTD/svg10.dtd">
<svg version="1.0" xmlns="http://www.w3.org/2000/svg"
 width="400.000000pt" height="400.000000pt" viewBox="0 0 400.000000 400.000000"
 preserveAspectRatio="xMidYMid meet">
<metadata>
Created by potrace 1.11, written by Peter Selinger 2001-2013
</metadata>
<g transform="translate(0.000000,400.000000) scale(0.100000,-0.100000)"
fill="#000000" stroke="none">
<path d="M2926 2843 c-2 -2 -23 -6 -47 -9 -24 -3 -48 -10 -53 -15 -11 -10 -14
-48 -15 -188 l-1 -94 -23 21 c-48 45 -129 50 -211 13 -121 -55 -195 -204 -191
-382 2 -72 6 -93 30 -137 35 -65 87 -102 146 -104 75 -3 136 20 191 74 l50 48
-5 -35 c-5 -35 -4 -36 27 -31 17 3 50 8 74 12 23 3 44 9 46 13 3 3 7 99 11
211 4 113 8 248 10 300 4 122 8 282 6 297 -1 10 -36 15 -45 6z m-164 -412 c29
-26 33 -35 36 -98 2 -37 -1 -88 -7 -111 -34 -123 -179 -173 -228 -78 -34 66
-15 213 35 270 45 51 118 58 164 17z"/>
<path d="M3372 2728 c-109 -17 -184 -64 -242 -151 -127 -189 -87 -452 75 -496
109 -30 247 7 331 88 157 153 160 461 5 541 -46 23 -100 29 -169 18z m76 -156
c31 -27 44 -68 43 -137 -1 -75 -13 -118 -47 -162 -64 -84 -182 -81 -216 6 -10
27 -12 116 -3 165 11 56 48 105 100 134 32 18 99 14 123 -6z"/>
<path d="M2040 2484 c-49 -15 -70 -31 -114 -84 l-29 -35 5 38 c5 43 3 44 -66
33 -91 -15 -86 -8 -87 -110 -1 -93 -2 -115 -13 -370 -5 -123 -4 -147 7 -143 8
3 39 8 69 12 30 4 60 10 65 13 6 4 13 80 16 187 8 228 18 265 81 304 18 12 49
21 67 21 80 -1 82 -8 65 -393 -1 -43 2 -71 8 -73 6 -2 43 2 81 9 64 11 70 14
71 37 10 159 12 440 4 469 -5 20 -23 50 -40 66 -25 24 -39 29 -87 30 -32 1
-78 -4 -103 -11z"/>
<path d="M505 2409 c-16 -5 -42 -10 -57 -11 -23 -2 -28 -7 -29 -28 0 -14 -2
-68 -4 -120 -2 -52 -6 -178 -10 -280 -3 -102 -8 -234 -11 -294 -4 -89 -2 -107
9 -103 8 3 39 8 69 12 30 4 60 10 65 13 6 4 13 81 17 186 6 193 15 242 49 281
26 30 88 54 123 47 43 -8 48 -34 45 -212 -1 -91 -4 -184 -6 -207 -1 -24 1 -46
6 -49 6 -3 41 0 79 7 80 14 75 2 80 179 9 318 8 333 -22 372 -34 45 -83 62
-155 55 -61 -6 -134 -44 -159 -82 -21 -32 -32 -32 -29 -1 2 14 5 73 7 133 3
120 1 123 -67 102z"/>
<path d="M1565 2390 c-22 -5 -56 -11 -75 -15 -19 -3 -35 -7 -36 -8 -2 -1 -5
-81 -9 -177 -7 -201 -10 -224 -33 -264 -37 -63 -119 -93 -162 -58 -23 19 -24
21 -21 183 1 90 4 190 6 222 3 58 2 58 -24 53 -38 -7 -109 -18 -118 -17 -19 0
-22 -52 -27 -398 -2 -90 13 -137 54 -174 28 -25 38 -28 95 -26 77 3 153 36
194 85 l28 35 -1 -33 c0 -29 3 -33 24 -33 43 1 119 16 125 24 2 5 7 82 10 172
3 90 7 226 10 302 3 75 4 137 2 136 -1 -1 -20 -5 -42 -9z"/>
<path d="M2707 1744 c-1 -1 -45 -5 -97 -8 -95 -7 -332 -32 -380 -41 -14 -2
-45 -7 -70 -10 -25 -3 -83 -13 -130 -21 -47 -9 -98 -18 -115 -21 -16 -2 -46
-8 -65 -13 -19 -5 -50 -12 -68 -15 -103 -17 -398 -96 -510 -135 -30 -11 -63
-27 -73 -36 -45 -41 -31 -129 26 -160 33 -17 37 -18 92 -2 266 78 452 125 598
152 68 13 323 55 365 61 25 3 56 8 70 10 14 2 59 7 100 11 41 3 82 8 91 9 8 2
69 6 135 10 65 4 145 8 176 10 31 2 68 11 81 20 64 42 56 147 -14 175 -21 9
-203 12 -212 4z"/>
<path d="M2698 1355 c-2 -1 -40 -5 -85 -9 -44 -3 -116 -11 -160 -16 -43 -6
-96 -13 -118 -16 -134 -17 -479 -96 -620 -142 -27 -9 -60 -27 -74 -40 -46 -46
-12 -159 51 -163 10 -1 24 -2 31 -3 6 -1 39 7 72 17 117 35 322 86 413 101 46
8 84 15 107 20 32 6 96 15 150 22 28 3 61 7 75 9 14 2 65 7 114 10 108 8 131
16 155 56 24 40 18 86 -17 121 -22 22 -82 43 -94 33z"/>
</g>
</svg>
